<?xml version="1.0" standalone="no"?>
<!DOCTYPE svg PUBLIC "-//W3C//DTD SVG 20010904//EN"
 "http://www.w3.org/TR/2001/REC-SVG-20010904/DTD/svg10.dtd">
<svg version="1.0" xmlns="http://www.w3.org/2000/svg"
 width="595.000000pt" height="595.000000pt" viewBox="0 0 595.000000 595.000000"
 preserveAspectRatio="xMidYMid meet">
<metadata>
Created by potrace 1.14, written by Peter Selinger 2001-2017
</metadata>
<g transform="translate(0.000000,595.000000) scale(0.100000,-0.100000)"
fill="#000000" stroke="none">
<path d="M2270 4630 c-41 -9 -88 -21 -103 -28 -15 -6 -39 -15 -52 -18 -14 -3
-25 -10 -25 -14 0 -5 -8 -11 -18 -14 -27 -9 -112 -95 -112 -115 0 -5 -7 -14
-15 -21 -8 -7 -12 -16 -9 -21 3 -5 0 -9 -5 -9 -6 0 -10 -3 -9 -7 0 -5 -2 -15
-5 -23 -35 -82 -39 -252 -8 -332 6 -16 9 -28 6 -28 -2 0 2 -14 9 -31 l13 -30
-134 -135 c-80 -80 -144 -136 -159 -138 -68 -13 -159 -54 -201 -93 -62 -56
-95 -183 -63 -243 9 -17 4 -33 -32 -98 -24 -42 -54 -104 -67 -137 -13 -33 -30
-75 -38 -93 -8 -18 -11 -36 -8 -41 3 -5 1 -12 -4 -15 -5 -3 -12 -23 -17 -43
-4 -21 -8 -40 -9 -43 -41 -148 -60 -359 -41 -475 12 -78 16 -102 21 -130 10
-55 37 -158 47 -184 6 -14 13 -34 15 -44 6 -35 96 -203 131 -247 95 -117 262
-247 397 -309 39 -18 77 -36 85 -40 9 -5 31 -12 50 -16 19 -4 39 -10 45 -13 5
-3 16 -7 25 -8 8 -2 29 -5 45 -8 134 -26 207 -26 293 0 41 12 56 13 67 4 8 -6
19 -9 24 -6 5 4 12 2 15 -3 3 -4 20 -12 38 -16 18 -4 38 -9 43 -10 19 -5 140
-28 170 -31 17 -3 48 -7 70 -10 22 -4 117 -7 210 -7 203 0 282 7 440 38 85 17
92 19 115 28 56 21 101 26 118 14 6 -5 12 -7 12 -4 0 3 15 0 33 -7 41 -16 160
-12 256 9 89 20 116 28 129 38 6 5 12 6 12 2 0 -4 7 -2 15 5 8 7 15 10 15 7 0
-9 142 63 211 108 68 44 100 69 151 117 16 16 33 28 38 28 6 0 10 7 10 15 0 8
4 15 9 15 10 0 84 94 110 140 43 74 106 232 113 282 2 13 7 29 12 36 4 7 5 16
2 19 -3 3 -1 14 4 24 6 9 12 35 15 56 2 21 6 52 9 68 6 35 19 155 18 170 0 27
-14 146 -22 190 -5 28 -12 64 -15 80 -12 71 -18 92 -54 204 -38 116 -85 220
-124 275 -17 24 -19 34 -10 72 20 88 1 162 -61 232 -19 22 -77 57 -101 62 -5
1 -16 6 -22 12 -7 6 -30 12 -50 15 -50 7 -71 19 -113 65 -59 66 -153 159 -186
185 l-32 24 20 51 c23 61 28 95 32 203 2 65 -2 94 -23 155 -14 41 -31 81 -38
88 -7 7 -13 17 -13 22 0 18 -96 103 -144 127 -117 60 -268 81 -411 59 -27 -5
-56 -9 -62 -9 -7 0 -13 -4 -13 -9 0 -5 -4 -7 -8 -4 -4 2 -38 -8 -74 -24 -37
-15 -69 -26 -71 -24 -2 3 -10 -2 -17 -11 -7 -8 -17 -15 -22 -15 -5 0 -14 -5
-21 -10 -7 -6 -37 -27 -67 -47 -30 -20 -66 -47 -79 -59 l-24 -23 -46 39 c-74
61 -235 154 -285 164 -6 2 -31 8 -56 15 -102 29 -216 33 -320 11z"/>
</g>
</svg>
